<mxfile host="app.diagrams.net" modified="2023-08-16T03:21:01.659Z" agent="Mozilla/5.0 (Windows NT 10.0; Win64; x64) AppleWebKit/537.36 (KHTML, like Gecko) Chrome/115.0.0.0 Safari/537.36" etag="pjYyj2Wh_Ym1ykeWgtcU" version="21.6.8" type="github">
  <diagram name="Page-1" id="Nq0isPCs4g1FgNZa7CM_">
    <mxGraphModel dx="1105" dy="592" grid="1" gridSize="10" guides="1" tooltips="1" connect="1" arrows="1" fold="1" page="1" pageScale="1" pageWidth="1100" pageHeight="850" math="0" shadow="0">
      <root>
        <mxCell id="0" />
        <mxCell id="1" parent="0" />
        <mxCell id="dllK3asZT1ui3LCHnfqZ-1" value="Admin" style="rounded=0;whiteSpace=wrap;html=1;" vertex="1" parent="1">
          <mxGeometry x="260" y="267.5" width="90" height="35" as="geometry" />
        </mxCell>
        <mxCell id="dllK3asZT1ui3LCHnfqZ-2" value="open login form&lt;br&gt;login.php" style="ellipse;whiteSpace=wrap;html=1;aspect=fixed;" vertex="1" parent="1">
          <mxGeometry x="520" y="230" width="110" height="110" as="geometry" />
        </mxCell>
        <mxCell id="dllK3asZT1ui3LCHnfqZ-3" value="" style="endArrow=none;html=1;rounded=0;" edge="1" parent="1">
          <mxGeometry width="50" height="50" relative="1" as="geometry">
            <mxPoint x="520" y="100" as="sourcePoint" />
            <mxPoint x="630" y="100" as="targetPoint" />
          </mxGeometry>
        </mxCell>
        <mxCell id="dllK3asZT1ui3LCHnfqZ-4" value="" style="endArrow=none;html=1;rounded=0;" edge="1" parent="1">
          <mxGeometry width="50" height="50" relative="1" as="geometry">
            <mxPoint x="520" y="140" as="sourcePoint" />
            <mxPoint x="630" y="140" as="targetPoint" />
          </mxGeometry>
        </mxCell>
        <mxCell id="dllK3asZT1ui3LCHnfqZ-5" value="" style="endArrow=classic;html=1;rounded=0;exitX=1;exitY=0.25;exitDx=0;exitDy=0;entryX=0.011;entryY=0.433;entryDx=0;entryDy=0;entryPerimeter=0;" edge="1" parent="1" source="dllK3asZT1ui3LCHnfqZ-1" target="dllK3asZT1ui3LCHnfqZ-2">
          <mxGeometry width="50" height="50" relative="1" as="geometry">
            <mxPoint x="510" y="320" as="sourcePoint" />
            <mxPoint x="560" y="270" as="targetPoint" />
          </mxGeometry>
        </mxCell>
        <mxCell id="dllK3asZT1ui3LCHnfqZ-6" value="" style="endArrow=classic;html=1;rounded=0;exitX=0.013;exitY=0.591;exitDx=0;exitDy=0;entryX=1;entryY=0.75;entryDx=0;entryDy=0;exitPerimeter=0;" edge="1" parent="1" source="dllK3asZT1ui3LCHnfqZ-2" target="dllK3asZT1ui3LCHnfqZ-1">
          <mxGeometry width="50" height="50" relative="1" as="geometry">
            <mxPoint x="531" y="286" as="sourcePoint" />
            <mxPoint x="360" y="288" as="targetPoint" />
          </mxGeometry>
        </mxCell>
        <mxCell id="dllK3asZT1ui3LCHnfqZ-7" value="" style="endArrow=classic;html=1;rounded=0;exitX=0.343;exitY=0.017;exitDx=0;exitDy=0;exitPerimeter=0;" edge="1" parent="1">
          <mxGeometry width="50" height="50" relative="1" as="geometry">
            <mxPoint x="560.73" y="231.87" as="sourcePoint" />
            <mxPoint x="561" y="140" as="targetPoint" />
          </mxGeometry>
        </mxCell>
        <mxCell id="dllK3asZT1ui3LCHnfqZ-8" value="" style="endArrow=classic;html=1;rounded=0;exitX=0.343;exitY=0.017;exitDx=0;exitDy=0;exitPerimeter=0;" edge="1" parent="1">
          <mxGeometry width="50" height="50" relative="1" as="geometry">
            <mxPoint x="590" y="140.0000000000001" as="sourcePoint" />
            <mxPoint x="590" y="232.0000000000001" as="targetPoint" />
          </mxGeometry>
        </mxCell>
        <mxCell id="dllK3asZT1ui3LCHnfqZ-9" value="username,password" style="text;html=1;strokeColor=none;fillColor=none;align=center;verticalAlign=middle;whiteSpace=wrap;rounded=0;" vertex="1" parent="1">
          <mxGeometry x="390" y="250" width="110" height="30" as="geometry" />
        </mxCell>
        <mxCell id="dllK3asZT1ui3LCHnfqZ-10" value="userdata: name,id" style="text;html=1;strokeColor=none;fillColor=none;align=center;verticalAlign=middle;whiteSpace=wrap;rounded=0;" vertex="1" parent="1">
          <mxGeometry x="390" y="290" width="110" height="30" as="geometry" />
        </mxCell>
        <mxCell id="dllK3asZT1ui3LCHnfqZ-11" value="mysql:" style="text;html=1;strokeColor=none;fillColor=none;align=center;verticalAlign=middle;whiteSpace=wrap;rounded=0;" vertex="1" parent="1">
          <mxGeometry x="464" y="106" width="60" height="30" as="geometry" />
        </mxCell>
        <mxCell id="dllK3asZT1ui3LCHnfqZ-12" value="register" style="text;html=1;strokeColor=none;fillColor=none;align=center;verticalAlign=middle;whiteSpace=wrap;rounded=0;" vertex="1" parent="1">
          <mxGeometry x="545" y="106" width="60" height="30" as="geometry" />
        </mxCell>
      </root>
    </mxGraphModel>
  </diagram>
</mxfile>
